<svg xmlns="http://www.w3.org/2000/svg" width="49" height="49" viewBox="0 0 49 49">
  <path fill="#B81B40" fill-rule="evenodd" d="M24.22.03c4.36 0 8.4 1.1 12.1 3.27a24.47 24.47 0 0 1 8.85 8.84 23.48 23.48 0 0 1 3.27 12.11c0 4.36-1.1 8.4-3.27 12.1a24.47 24.47 0 0 1-8.84 8.85 23.48 23.48 0 0 1-12.11 3.27c-4.36 0-8.4-1.1-12.11-3.27a24.47 24.47 0 0 1-8.84-8.84A23.48 23.48 0 0 1 0 24.25c0-4.36 1.09-8.4 3.27-12.1a24.47 24.47 0 0 1 8.84-8.85A23.48 23.48 0 0 1 24.2.03zm0 43.75c3.51 0 6.77-.88 9.76-2.64a19.7 19.7 0 0 0 7.13-7.12 19.26 19.26 0 0 0 2.05-14.45h-1.75c-.46 0-.83.14-1.13.43-.29.3-.44.64-.44 1.03v.68c0 .65-.29 1.1-.88 1.37l-1.46.78c-.52.26-1 .23-1.46-.1l-1.86-1.17c-.4-.26-.81-.33-1.27-.2l-.3.1c-.45.13-.76.44-.92.93-.16.49-.11.93.15 1.32l1.27 1.95c.32.46.74.69 1.26.69h.88c.4 0 .74.14 1.03.43.3.3.44.64.44 1.03v1.17c0 .33-.1.62-.3.88l-1.85 2.44c-.13.2-.23.43-.3.69l-.38 2.14a1.7 1.7 0 0 1-.5.88c-.9.85-1.72 1.8-2.43 2.84l-1.27 1.95A2.54 2.54 0 0 1 27.44 43c-.52 0-1-.13-1.41-.4A2.96 2.96 0 0 1 25 41.55a8.16 8.16 0 0 1-.78-3.52v-2.93c0-.4-.15-.73-.44-1.03a1.4 1.4 0 0 0-1.03-.43h-2.54c-1.5 0-2.76-.53-3.8-1.57a5.18 5.18 0 0 1-1.57-3.8v-1.37a5.1 5.1 0 0 1 2.15-4.2l2.64-2.05a5.33 5.33 0 0 1 3.22-1.08h.1c.85 0 1.66.2 2.44.59l1.37.68c.39.2.78.23 1.17.1l4.59-1.56c.32-.07.59-.23.78-.5.2-.25.3-.58.3-.97s-.15-.73-.45-1.02a1.4 1.4 0 0 0-1.02-.44h-1.08c-.39 0-.74-.17-1.07-.5l-.59-.58a1.5 1.5 0 0 0-1.07-.48h-8.89c-.39 0-.73-.15-1.02-.44a1.4 1.4 0 0 1-.44-1.03v-.49c0-.32.11-.63.34-.93.23-.29.5-.47.83-.53l1.37-.4c.39-.06.68-.25.88-.58l.78-1.17a1.5 1.5 0 0 1 1.27-.68h2.34c.46 0 .83-.15 1.12-.44.3-.3.44-.64.44-1.03V5.01a18.95 18.95 0 0 0-12.9 2.34 19.7 19.7 0 0 0-7.12 7.13c-1.75 3-2.63 6.25-2.63 9.77 0 3.52.88 6.77 2.63 9.77a19.7 19.7 0 0 0 7.13 7.12c3 1.76 6.25 2.64 9.77 2.64z"/>
</svg>
